<?xml version="1.0" encoding="utf-8"?>
<!-- Generator: Adobe Illustrator 15.1.0, SVG Export Plug-In . SVG Version: 6.00 Build 0)  -->
<!DOCTYPE svg PUBLIC "-//W3C//DTD SVG 1.1//EN" "http://www.w3.org/Graphics/SVG/1.1/DTD/svg11.dtd">
<svg version="1.1" id="Layer_1" xmlns="http://www.w3.org/2000/svg" xmlns:xlink="http://www.w3.org/1999/xlink" x="0px" y="0px"
	 width="20px" height="20px" viewBox="0 0 20 20" enable-background="new 0 0 20 20" xml:space="preserve">
<g>
	<path fill="#F3F2F1" d="M8.969,19.445c-0.123,0-0.246-0.047-0.339-0.141l-7.828-7.753c-0.096-0.096-0.151-0.228-0.151-0.362V1.06
		c0-0.21,0.126-0.398,0.316-0.471c0.057-0.022,0.115-0.034,0.174-0.034c0.137,0,0.271,0.06,0.366,0.17l7.827,9.08
		c0.081,0.092,0.124,0.211,0.124,0.335l0.001,8.799c0,0.201-0.118,0.386-0.298,0.465C9.099,19.434,9.035,19.445,8.969,19.445z"/>
	<path fill="#CCCCCC" d="M1.141,1.06l7.827,9.081l0.001,8.8l-7.828-7.752V1.06 M1.141,0.05c-0.117,0-0.235,0.022-0.348,0.066
		C0.412,0.265,0.162,0.641,0.162,1.06v10.129c0,0.273,0.108,0.537,0.3,0.729L8.29,19.67c0.187,0.184,0.43,0.279,0.679,0.279
		c0.129,0,0.26-0.025,0.384-0.081c0.361-0.157,0.596-0.524,0.596-0.929L9.948,10.14c0-0.248-0.088-0.486-0.247-0.67L1.874,0.391
		C1.684,0.169,1.416,0.05,1.141,0.05L1.141,0.05z"/>
</g>
<g>
	<path fill="#F3F2F1" d="M11.069,19.445c-0.063,0-0.129-0.014-0.189-0.039c-0.181-0.079-0.297-0.264-0.297-0.467l0.002-8.798
		c0-0.125,0.043-0.244,0.123-0.335l7.76-9.081c0.095-0.111,0.228-0.17,0.363-0.17c0.06,0,0.117,0.011,0.173,0.034
		c0.188,0.074,0.312,0.262,0.312,0.471v10.129c0,0.138-0.055,0.271-0.146,0.362l-7.764,7.753
		C11.312,19.398,11.193,19.445,11.069,19.445z"/>
	<path fill="#CCCCCC" d="M18.831,1.06v10.129l-7.762,7.75l0.002-8.798L18.831,1.06 M18.831,0.05c-0.271,0-0.539,0.119-0.725,0.339
		l-7.762,9.08C10.187,9.654,10.1,9.892,10.1,10.14l-0.001,8.799c0,0.403,0.232,0.771,0.59,0.93c0.124,0.055,0.253,0.081,0.382,0.081
		c0.245,0,0.488-0.099,0.673-0.281l7.761-7.752c0.19-0.19,0.301-0.452,0.301-0.728V1.06c0-0.419-0.25-0.795-0.627-0.944
		C19.064,0.071,18.946,0.05,18.831,0.05L18.831,0.05z"/>
</g>
</svg>
