<?xml version="1.0" encoding="utf-8"?>
<!-- Generator: Adobe Illustrator 15.1.0, SVG Export Plug-In . SVG Version: 6.00 Build 0)  -->
<!DOCTYPE svg PUBLIC "-//W3C//DTD SVG 1.1//EN" "http://www.w3.org/Graphics/SVG/1.1/DTD/svg11.dtd">
<svg version="1.1" id="Layer_1" xmlns="http://www.w3.org/2000/svg" xmlns:xlink="http://www.w3.org/1999/xlink" x="0px" y="0px"
	 width="792px" height="612px" viewBox="0 0 792 612" enable-background="new 0 0 792 612" xml:space="preserve">
<g>
	<path fill="#F1F0F0" d="M291.667,66.333c-0.125,0-0.25-0.047-0.344-0.137l-12.917-12.25c-0.1-0.094-0.156-0.226-0.156-0.363V37.75
		c0-0.207,0.127-0.392,0.319-0.466c0.059-0.022,0.12-0.034,0.181-0.034c0.138,0,0.273,0.057,0.37,0.163l12.833,14.083
		c0.083,0.091,0.129,0.21,0.13,0.334l0.083,14c0.001,0.2-0.117,0.382-0.301,0.462C291.801,66.32,291.734,66.333,291.667,66.333z"/>
	<path fill="#CCCCCC" d="M278.75,37.75l12.833,14.083l0.083,14l-12.917-12.25V37.75 M278.75,36.75c-0.122,0-0.244,0.022-0.361,0.067
		c-0.385,0.149-0.639,0.52-0.639,0.933v15.833c0,0.274,0.113,0.537,0.312,0.726l12.917,12.25c0.189,0.18,0.437,0.274,0.688,0.274
		c0.134,0,0.27-0.027,0.397-0.083c0.368-0.159,0.605-0.522,0.603-0.923l-0.083-14c-0.001-0.247-0.094-0.485-0.261-0.667
		l-12.833-14.083C279.296,36.864,279.026,36.75,278.75,36.75L278.75,36.75z"/>
</g>
<g>
	<path fill="#F1F0F0" d="M293.75,66.333c-0.067,0-0.135-0.014-0.199-0.041c-0.184-0.08-0.302-0.262-0.301-0.462l0.083-14
		c0.001-0.124,0.047-0.243,0.13-0.334l12.833-14.083c0.097-0.106,0.232-0.163,0.37-0.163c0.061,0,0.122,0.011,0.181,0.034
		c0.192,0.075,0.319,0.26,0.319,0.466v15.833c0,0.137-0.056,0.269-0.156,0.363l-12.917,12.25
		C293.999,66.286,293.875,66.333,293.75,66.333z"/>
	<path fill="#CCCCCC" d="M306.666,37.75v15.833l-12.917,12.25l0.083-14L306.666,37.75 M306.666,36.75
		c-0.276,0-0.546,0.114-0.739,0.327L293.093,51.16c-0.167,0.183-0.259,0.42-0.261,0.667l-0.083,14
		c-0.002,0.401,0.235,0.764,0.603,0.923c0.128,0.056,0.263,0.083,0.397,0.083c0.251,0,0.499-0.095,0.688-0.274l12.917-12.25
		c0.199-0.189,0.312-0.451,0.312-0.726V37.75c0-0.413-0.254-0.783-0.639-0.933C306.91,36.772,306.788,36.75,306.666,36.75
		L306.666,36.75z"/>
</g>
</svg>
